<svg width="122" height="224" viewBox="0 0 122 224" fill="none" xmlns="http://www.w3.org/2000/svg">
<path d="M60.5292 223.875C44.9987 223.875 30.514 222.93 19.7445 221.215C6.45858 219.099 0 216.025 0 211.816L0.00726701 211.683L23.3264 44.5245L11.6515 13.0179C11.0913 11.5355 10.9234 9.94694 11.1626 8.38977C11.4018 6.83259 12.0407 5.3538 13.024 4.08157C13.9845 2.7896 15.2692 1.74117 16.7641 1.02954C18.2589 0.317919 19.9173 -0.0348164 21.5919 0.00270978L98.9012 0.760795C100.54 0.776818 102.151 1.15718 103.604 1.87087C105.057 2.58456 106.31 3.61138 107.261 4.86761C108.213 6.12384 108.835 7.57392 109.078 9.09963C109.321 10.6253 109.177 12.1835 108.659 13.6471L97.7305 44.5128L121.054 211.686V211.751C121.056 216.288 113.744 219.51 98.7001 221.6C83.9209 223.653 67.0827 223.875 60.5292 223.875Z" fill="white"/>
<path opacity="0.5" d="M104.599 191.364H16.46L30.432 102.42L30.8126 99.9684L36.6334 62.9407C36.9885 60.682 39.7507 62.4361 41.7037 61.0821C53.8293 52.6759 66.1 52.4321 78.4773 60.5344C80.3905 61.7868 83.0334 60.321 83.3903 62.4889L89.5052 99.6289L90.0961 103.221L104.599 191.364Z" fill="#437E2C"/>
<path d="M93.7208 203.818H27.2438C25.501 203.818 23.7787 203.465 22.1941 202.782C20.6096 202.099 19.2 201.102 18.0614 199.86C16.9229 198.618 16.082 197.159 15.5961 195.584C15.1102 194.008 14.9908 192.353 15.2458 190.73L34.6683 67.0859C34.7685 66.4537 35.0444 65.8577 35.468 65.3581C35.8915 64.8585 36.4478 64.4732 37.0804 64.241C37.713 64.0089 38.3995 63.9382 39.0705 64.0361C39.7415 64.134 40.3731 64.397 40.9013 64.7985C52.7385 73.7255 65.6396 73.5244 79.2454 64.204C79.773 63.8409 80.3915 63.6127 81.0407 63.5415C81.6899 63.4703 82.3475 63.5586 82.9496 63.7979C83.5643 64.0354 84.1032 64.4188 84.5137 64.9107C84.9241 65.4026 85.1922 65.9862 85.2918 66.6046L105.707 190.652C105.974 192.28 105.865 193.943 105.386 195.528C104.906 197.112 104.069 198.58 102.93 199.83C101.791 201.081 100.379 202.085 98.7891 202.773C97.1995 203.462 95.4705 203.818 93.7208 203.818Z" fill="#437E2C"/>
<path d="M66.9712 165.33H29.2021V167.329H66.9712V165.33Z" fill="white"/>
<path d="M66.9712 153.333H29.2021V155.333H66.9712V153.333Z" fill="white"/>
<path d="M66.9712 141.337H29.2021V143.337H66.9712V141.337Z" fill="white"/>
<path d="M91.8765 109.867C88.9472 112.605 85.4232 114.714 81.5465 116.05C77.6697 117.386 73.5319 117.916 69.417 117.604C64.7233 117.204 60.4437 115.555 56.3235 113.475C52.0653 111.326 47.9451 108.757 43.2302 107.557C39.0993 106.508 34.2039 106.368 30.657 108.967C30.3671 109.178 30.013 109.297 29.6463 109.306C29.2796 109.315 28.9194 109.214 28.6182 109.017L29.0217 106.418C32.972 103.818 37.7719 103.418 42.4762 104.308C51.9484 106.108 59.1376 113.485 68.8435 114.545C73.0303 114.989 77.2686 114.447 81.1777 112.967C85.0868 111.487 88.5442 109.116 91.2393 106.068L91.2499 106.058L91.8765 109.867Z" fill="white"/>
</svg>
